<svg xmlns="http://www.w3.org/2000/svg" viewBox="0 0 512 512">
  <defs>
    <radialGradient id="bg" cx="35%" cy="22%" r="78%">
      <stop offset="0" stop-color="#fff0b5"/>
      <stop offset="0.46" stop-color="#c48642"/>
      <stop offset="1" stop-color="#3a2116"/>
    </radialGradient>
    <linearGradient id="wing" x1="0" y1="0" x2="1" y2="1">
      <stop offset="0" stop-color="#f7d9ff"/>
      <stop offset="0.55" stop-color="#af6dff"/>
      <stop offset="1" stop-color="#5ee7ff"/>
    </linearGradient>
  </defs>
  <rect width="512" height="512" rx="112" fill="url(#bg)"/>
  <path d="M126 280c-36-102 26-162 108-96-56 12-74 48-56 108-22 0-39-4-52-12Z" fill="url(#wing)" opacity=".92"/>
  <path d="M386 280c36-102-26-162-108-96 56 12 74 48 56 108 22 0 39-4 52-12Z" fill="url(#wing)" opacity=".92"/>
  <circle cx="256" cy="232" r="55" fill="#ffe5b4" stroke="#5b3321" stroke-width="14"/>
  <path d="M180 382c20-78 132-78 152 0H180Z" fill="#f8ead2" stroke="#5b3321" stroke-width="14" stroke-linejoin="round"/>
  <path d="M230 230c16 14 36 14 52 0" fill="none" stroke="#5b3321" stroke-width="12" stroke-linecap="round"/>
  <path d="M226 158c35-33 72-26 98 8-36-8-70-2-101 20Z" fill="#f1c15b" stroke="#5b3321" stroke-width="10" stroke-linejoin="round"/>
  <path d="M124 389h264" stroke="#ffe58a" stroke-width="24" stroke-linecap="round"/>
  <path d="M155 389h202" stroke="#8f4d25" stroke-width="10" stroke-linecap="round"/>
</svg>
